<svg xmlns="http://www.w3.org/2000/svg" viewBox="0 0 246.69 131.35">
  <g fill="none" stroke="#6a5d4d" stroke-width="3" stroke-linecap="round" stroke-linejoin="round">
    <path d="m 2.15,21.59 c -0.27,12.49 2,24.94 0.85,37.44 -0.2,8.13 -0.4,16.27 0.11,24.4 0.06,12.69 -0.67,24.4 0.11,37.08 3.25,5.74 10.09,7.57 16.04,8.22 4.53,-0.08 9.08,-0.73 13.62,-0.04 6.8,0.76 13.94,1.44 20.78,0.71 8.33,-0.46 13.77,-0.1 22.09,-0.01 1.16,-0.13 5.57,-0.41 7.18,-0.45"/>
    <path d="m 82.15,128.95 c 14.29,-0.63 28.59,-0.22 42.88,-0.4 14.07,-0.78 28.23,0.98 42.25,-0.51 13.33,-1.05 26.77,0.17 40.13,-0.53 7.19,-0.71 14.41,0.15 21.61,-0.45 6.82,-0.42 11.82,-0.14 13.13,-6.04 0.33,-4.8 0.55,-9.61 1.22,-14.39"/>
    <path d="m 243.38,106.4 c 0.46,-7.01 0.68,-14.02 1.44,-21.02 0.71,-10.61 -0.42,-21.22 -0.7,-31.82 -0.69,-13.52 -1.14,-27.04 -0.93,-40.58 1.62,-7.34 -4.43,-12.83 -11.6,-10.97 -8.16,0.54 -16.35,1.04 -24.5,1.46 -5.94,0.91 -11.98,-0.1 -17.96,0.36 -6.55,-0.45 -13.15,-1.64 -19.65,-0.09 -10.66,0.59 -21.32,-1.02 -32,-.41 -8.56,0.07 -17.1,0.91 -25.64,-0.03 -1.67,-0.04 -3.34,-0.03 -5.01,0.04"/>
    <path d="m 106.63,3.34 c -8.31,-0.06 -16.65,-0.04 -24.89,-1.22 -11.57,-0.85 -23.08,1.35 -34.65,1.32 -8.12,0.2 -16.25,-0.01 -24.36,-0.41 -6.01,-0.31 -12.02,-1.24 -18.04,-1.14 -3.8,1.83 -2.95,6.86 -3,10.36 0.09,2.95 0.22,5.9 0.39,8.85"/>
  </g>
</svg>
