<svg xmlns="http://www.w3.org/2000/svg" viewBox="0 0 112.59 57.51">
  <path fill="none" stroke="#6a3a8a" stroke-width="3" stroke-linecap="round" stroke-linejoin="round"
    d="m 15.47,1.95 c 5.57,-0.11 11.15,-0.05 16.71,0.09 5.01,0.1 12.76,0.88 19.15,0.62 4.28,0.49 8.6,-0.31 12.91,0.29 6.16,-0.07 12.31,-1 18.5,-0.66 5.81,0.33 10.05,0.47 17.52,0.33 7.4,-0.52 10.78,0.1 10.26,7.29 -0.3,6.13 -0.17,11.36 -0.17,16.04 0.03,8.65 1.36,25 -0.57,27.61 -2.95,3.79 -9.95,1.08 -14.31,1.16 -3.99,-0.14 -9.6,1.1 -13.52,0.04 -4.88,-0.67 -8.21,0.66 -13.11,0.31 -4.96,0 -9.79,-0.84 -14.57,0.31 -5.88,0.78 -13.38,0.64 -19.2,-0.51 -5.84,-0.9 -9.96,-0.06 -15.84,-0.13 -4.78,-0.05 -15.04,1.76 -16.6,-0.04 -1.75,-1.85 -0.38,-11.78 -0.44,-15.64 -0.37,-9.23 -0.54,-15.6 0.13,-24.82 0.09,-1.61 -1.13,-8.42 0.01,-10.21 2.41,-3.57 9.26,-1.59 13.14,-2.09 z"/>
</svg>
