<svg xmlns="http://www.w3.org/2000/svg" viewBox="0 0 642.05 5.41">
  <path fill="none" stroke="#c8b898" stroke-width="1.5" stroke-linecap="round" stroke-linejoin="round"
    d="m 1.67,2.78 c 5.1,-0.23 16.43,-0.11 33.98,0.37 17.55,0.47 31.35,0.66 41.4,0.56 10.05,-0.1 15.9,-0.11 17.53,-0.03 1.63,0.08 9.72,0.1 24.26,0.07 14.54,-0.03 24.66,-0.14 30.35,-0.33 5.69,-0.19 10.54,-0.29 14.55,-0.29 4,-0.01 9.81,-0.18 17.42,-0.53 7.61,-0.34 12.92,-0.49 15.94,-0.43 3.02,0.06 7.35,0.28 13,0.68 5.65,0.4 15.36,0.46 29.12,0.2 13.77,-0.26 23.86,-0.3 30.29,-0.1 6.43,0.19 17.02,0.31 31.78,0.35 14.76,0.04 28.37,0 40.83,-0.12 12.46,-0.12 22.05,-0.31 28.77,-0.59 6.72,-0.28 14.79,-0.33 24.21,-0.16 9.42,0.17 26.8,0.19 52.14,0.06 25.34,-0.13 43.5,-0.17 54.48,-0.12 10.98,0.06 23.8,-0.05 38.46,-0.32 14.66,-0.27 25.89,-0.4 33.69,-0.39 7.8,0.01 17.78,0.24 29.93,0.68 12.15,0.44 19.34,0.61 21.59,0.5 2.24,-0.11 7.24,-0.2 15,-0.27"/>
</svg>
